<mxfile host="65bd71144e">
    <diagram id="nJFLbdlxkLKLng1LTqDJ" name="Page-1">
        <mxGraphModel dx="857" dy="899" grid="1" gridSize="10" guides="1" tooltips="1" connect="1" arrows="1" fold="1" page="1" pageScale="1" pageWidth="850" pageHeight="1100" math="0" shadow="0">
            <root>
                <mxCell id="0"/>
                <mxCell id="1" parent="0"/>
                <mxCell id="2" value="WHAT IS THE PRICING STRATEGY?" style="shape=note;whiteSpace=wrap;html=1;backgroundOutline=1;darkOpacity=0.05;fillColor=#FF85DC;strokeColor=#A50040;fontColor=#000000;fontSize=16;fontStyle=1;align=left;verticalAlign=top;spacing=10;fontFamily=Comic Sans MS;" vertex="1" parent="1">
                    <mxGeometry x="40" y="80" width="120" height="120" as="geometry"/>
                </mxCell>
            </root>
        </mxGraphModel>
    </diagram>
</mxfile>